<?xml version="1.0" encoding="utf-8"?>
<!-- Generator: Adobe Illustrator 16.0.4, SVG Export Plug-In . SVG Version: 6.00 Build 0)  -->
<!DOCTYPE svg PUBLIC "-//W3C//DTD SVG 1.1//EN" "http://www.w3.org/Graphics/SVG/1.1/DTD/svg11.dtd">
<svg version="1.1" id="Layer_1" xmlns="http://www.w3.org/2000/svg" xmlns:xlink="http://www.w3.org/1999/xlink" x="0px" y="0px"
	 width="54px" height="54px" viewBox="0 0 54 54" enable-background="new 0 0 54 54" xml:space="preserve">
<g>
	<path fill="#BC2D26" d="M27,1.834C13.102,1.834,1.834,13.102,1.834,27S13.102,52.166,27,52.166S52.166,40.898,52.166,27
		S40.898,1.834,27,1.834z M27.448,40.797c-0.558,0.602-1.349,0.901-2.375,0.901c-1.026,0-1.814-0.294-2.363-0.878
		c-0.549-0.587-0.824-1.406-0.824-2.462c0-2.183,1.062-3.274,3.188-3.274c1.041,0,1.836,0.286,2.385,0.855
		c0.55,0.573,0.824,1.378,0.824,2.419C28.282,39.385,28.003,40.199,27.448,40.797z M35.178,19.634
		c-0.317,0.846-0.799,1.651-1.441,2.418c-0.645,0.766-1.753,1.764-3.329,2.992c-1.345,1.056-2.245,1.93-2.699,2.624
		c-0.457,0.693-0.684,1.626-0.684,2.797v0.977h-4.25v-1.389c0-1.59,0.289-2.913,0.867-3.968c0.578-1.056,1.59-2.147,3.036-3.274
		c1.72-1.359,2.829-2.414,3.329-3.166c0.497-0.752,0.747-1.648,0.747-2.689c0-1.214-0.404-2.147-1.214-2.797
		s-1.973-0.976-3.491-0.976c-1.374,0-2.646,0.195-3.816,0.585c-1.171,0.39-2.313,0.86-3.426,1.409l-1.822-3.816
		c2.935-1.633,6.079-2.45,9.433-2.45c2.833,0,5.082,0.694,6.744,2.082c1.663,1.388,2.494,3.303,2.494,5.747
		C35.655,17.823,35.496,18.788,35.178,19.634z"/>
</g>
</svg>
